<mxfile host="app.diagrams.net" modified="2024-03-27T09:02:46.256Z" agent="Mozilla/5.0 (Windows NT 10.0; Win64; x64) AppleWebKit/537.36 (KHTML, like Gecko) Chrome/122.0.0.0 Safari/537.36" version="23.0.1" etag="-Ml-dHaKzXwoRfP2cv3C" type="github">
  <diagram name="Sida-1" id="2VxnyT10T6j4waMA-C0C">
    <mxGraphModel>
      <root>
        <mxCell id="0" />
        <mxCell id="1" parent="0" />
      </root>
    </mxGraphModel>
  </diagram>
</mxfile>
